<svg width="243" height="54" viewBox="0 0 243 54" fill="none" xmlns="http://www.w3.org/2000/svg">
<path d="M182.384 17.1162L173.583 34.6012H177.958L179.842 30.5965H190.235L192.119 34.6012H196.494L187.721 17.1162H182.384ZM181.45 27.1962L185.054 19.5494L188.624 27.1962H181.45Z" fill="#828282"/>
<path d="M218.371 19.2297C217.95 18.7618 217.46 18.3835 216.915 18.1106C216.35 17.8259 215.751 17.6114 215.136 17.4633C214.513 17.3151 213.879 17.2176 213.256 17.1786C212.61 17.1357 212.014 17.1162 211.481 17.1162H198.779V34.6012H202.711V29.9453H211.477C212.014 29.9453 212.614 29.9219 213.252 29.8829C213.875 29.8439 214.505 29.7464 215.132 29.5982C215.747 29.454 216.346 29.2356 216.911 28.9509C217.456 28.678 217.946 28.3036 218.367 27.8318C218.787 27.36 219.134 26.7751 219.398 26.0849C219.659 25.3947 219.791 24.5329 219.791 23.5307C219.791 22.5286 219.659 21.6668 219.398 20.9766C219.137 20.2864 218.791 19.6976 218.371 19.2297ZM215.459 24.6538C215.334 25.0281 215.109 25.344 214.797 25.5935C214.498 25.8275 214.112 26.003 213.622 26.1239C213.162 26.2369 212.582 26.2915 211.893 26.2915H202.715V20.7973H211.893C212.578 20.7973 213.155 20.848 213.61 20.9493C214.104 21.0624 214.505 21.2418 214.805 21.4875C215.116 21.7448 215.334 22.0568 215.459 22.4155C215.572 22.7431 215.626 23.1174 215.626 23.5307C215.626 23.9441 215.572 24.3184 215.459 24.6538Z" fill="#828282"/>
<path d="M242.477 20.9766C242.217 20.2864 241.87 19.6976 241.446 19.2297C241.025 18.7618 240.535 18.3835 239.99 18.1106C239.426 17.8259 238.826 17.6114 238.211 17.4633C237.588 17.3151 236.954 17.2176 236.331 17.1786C235.685 17.1357 235.089 17.1162 234.556 17.1162H221.858V34.6012H225.79V29.9453H234.556C235.093 29.9453 235.693 29.9219 236.331 29.8829C236.954 29.8439 237.584 29.7464 238.211 29.5982C238.826 29.454 239.426 29.2356 239.99 28.9509C240.535 28.678 241.025 28.3036 241.446 27.8318C241.866 27.36 242.213 26.7751 242.477 26.0849C242.738 25.3947 242.871 24.5329 242.871 23.5307C242.871 22.5286 242.738 21.6668 242.477 20.9766ZM238.538 24.6538C238.414 25.0281 238.188 25.344 237.876 25.5935C237.577 25.8275 237.191 26.003 236.701 26.1239C236.241 26.2369 235.661 26.2915 234.972 26.2915H225.79V20.7973H234.969C235.654 20.7973 236.23 20.848 236.685 20.9493C237.18 21.0624 237.58 21.2418 237.88 21.4875C238.192 21.7448 238.41 22.0568 238.534 22.4155C238.647 22.7431 238.702 23.1174 238.702 23.5307C238.705 23.9441 238.647 24.3184 238.538 24.6538Z" fill="#828282"/>
<path d="M60.0829 20.7973H66.8443V34.5973H70.7524V20.7973H77.6657V17.1162H60.0829V20.7973Z" fill="#030303"/>
<path d="M97.4283 28.1944C98.0005 28.0229 98.561 27.7889 99.0865 27.5003C99.5965 27.2157 100.056 26.853 100.445 26.4241C100.83 25.9991 101.142 25.4804 101.371 24.8838C101.597 24.2872 101.714 23.5736 101.714 22.7548C101.714 21.6278 101.5 20.692 101.072 19.9784C100.64 19.257 100.087 18.6799 99.4252 18.2665C98.7479 17.8415 97.9849 17.5412 97.1597 17.3736C96.3111 17.202 95.4781 17.1123 94.6879 17.1123H80.698V34.5973H84.6061V28.6546H86.1242V28.6429H91.0406C91.0912 28.8534 91.1418 29.0601 91.2041 29.2707C91.4065 29.9531 91.7023 30.6238 92.0838 31.2672C92.4575 31.895 92.9635 32.4682 93.5941 32.9712C94.2247 33.4742 95.0227 33.8876 95.9686 34.1956C96.9223 34.5076 98.09 34.6636 99.4446 34.6636C100.138 34.6636 100.78 34.6207 101.371 34.5388V30.8343C101.325 30.8421 101.278 30.8577 101.227 30.8655C100.651 30.963 100.048 31.0137 99.4408 31.0137C98.8335 31.0137 98.234 30.963 97.6579 30.8655C97.0546 30.7603 96.5096 30.5731 96.0309 30.3079C95.5287 30.0272 95.1239 29.6411 94.8242 29.1615C94.7424 29.0289 94.6723 28.8456 94.6101 28.6351C94.9448 28.6195 95.2874 28.6 95.6455 28.561C96.2488 28.4869 96.8444 28.3699 97.4283 28.1944ZM94.1196 25.4882H84.6061V20.7973H94.8436C95.7739 20.7973 96.4357 20.9961 96.8678 21.4095C97.3037 21.8228 97.5217 22.396 97.5217 23.1174C97.5217 23.8349 97.2064 24.4471 96.6147 24.8799C96.0464 25.2894 95.2329 25.4882 94.1196 25.4882Z" fill="#030303"/>
<path d="M147.518 20.0604C147.016 19.4287 146.444 18.9179 145.817 18.5474C145.175 18.1653 144.505 17.8689 143.824 17.6661C143.139 17.4634 142.454 17.3269 141.792 17.2723C141.111 17.2138 140.496 17.1826 139.963 17.1826H127.662V34.6676H139.963C140.5 34.6676 141.115 34.6364 141.792 34.5779C142.454 34.5194 143.139 34.3868 143.824 34.1841C144.505 33.9813 145.175 33.6849 145.817 33.3028C146.444 32.9284 147.016 32.4215 147.518 31.7898C148.02 31.1581 148.433 30.3587 148.74 29.4112C149.052 28.4558 149.207 27.286 149.207 25.929C149.207 24.5759 149.052 23.4022 148.74 22.4468C148.429 21.4915 148.02 20.6921 147.518 20.0604ZM144.863 27.711C144.758 28.3154 144.571 28.8614 144.307 29.341C144.026 29.844 143.641 30.2496 143.162 30.5498C142.672 30.854 142.049 31.0099 141.305 31.0099H131.597V20.8637H141.305C142.049 20.8637 142.672 21.0196 143.162 21.3238C143.641 21.624 144.026 22.0257 144.307 22.5131C144.575 22.9849 144.762 23.527 144.867 24.1314C144.964 24.7085 145.015 25.3129 145.015 25.9212C145.011 26.5295 144.961 27.13 144.863 27.711Z" fill="#030303"/>
<path d="M112.084 17.1162L103.283 34.6012H107.658L109.542 30.5965H119.935L121.819 34.5973H126.194L117.421 17.1162H112.084ZM111.15 27.1962L114.754 19.5494L118.324 27.1962H111.15Z" fill="#030303"/>
<path d="M154.751 27.4614H170.095V24.3808H154.751V20.7973H170.823V17.1162H151.076V18.9567V20.7973V24.3808V27.4614V34.5973H151.251V34.6558H170.998V30.9747H154.751V27.4614Z" fill="#030303"/>
<path d="M35.2639 18.6684L50.227 16.3872L52.7533 0.789551L37.7863 3.1058L35.2639 18.6684Z" fill="#05ADC9"/>
<path d="M12.4768 38.7189L24.6527 53.6497L30.9509 14.9675C31.1494 13.8913 31.2001 12.7683 30.9976 11.6569C30.2736 7.71853 26.5912 5.08252 22.6714 5.60115V5.58165L2.57405 8.77917L0.129517 23.8816L15.2483 21.6238L12.4768 38.7189Z" fill="url(#paint0_linear_25264_30486)"/>
<defs>
<linearGradient id="paint0_linear_25264_30486" x1="-4.36902" y1="29.594" x2="32.5968" y2="29.594" gradientUnits="userSpaceOnUse">
<stop offset="0.3619" stop-color="#75FBFD"/>
<stop offset="0.6426" stop-color="#3DD4E3"/>
<stop offset="0.8784" stop-color="#15B8D0"/>
<stop offset="1" stop-color="#05ADC9"/>
</linearGradient>
</defs>
</svg>
